<mxfile>
    <diagram id="IH4zY5asgSpdTbL2U8yz" name="Page-1">
        <mxGraphModel dx="1565" dy="846" grid="1" gridSize="10" guides="1" tooltips="1" connect="1" arrows="1" fold="1" page="1" pageScale="1" pageWidth="850" pageHeight="1100" math="0" shadow="0">
            <root>
                <mxCell id="0"/>
                <mxCell id="1" parent="0"/>
                <mxCell id="15" value="" style="rounded=0;whiteSpace=wrap;html=1;" vertex="1" parent="1">
                    <mxGeometry width="850" height="560" as="geometry"/>
                </mxCell>
                <mxCell id="tefMZ0r-ZjxjYCsN4_kW-2" value="" style="rounded=0;whiteSpace=wrap;html=1;" parent="1" vertex="1">
                    <mxGeometry x="40" y="40" width="240" height="400" as="geometry"/>
                </mxCell>
                <mxCell id="tefMZ0r-ZjxjYCsN4_kW-7" value="" style="rounded=0;whiteSpace=wrap;html=1;" parent="1" vertex="1">
                    <mxGeometry x="400" y="40" width="240" height="500" as="geometry"/>
                </mxCell>
                <mxCell id="tefMZ0r-ZjxjYCsN4_kW-15" value="&lt;div style=&quot;text-align: left&quot;&gt;&lt;span&gt;&amp;nbsp; {&lt;/span&gt;&lt;/div&gt;&lt;div style=&quot;text-align: left&quot;&gt;&lt;span&gt;&amp;nbsp; &amp;nbsp; &quot;cardID&quot;: 2,&lt;/span&gt;&lt;/div&gt;&lt;div style=&quot;text-align: left&quot;&gt;&lt;span&gt;&amp;nbsp; &amp;nbsp; &amp;nbsp;&quot;&lt;/span&gt;&lt;span&gt;aboveOfIdx&lt;/span&gt;&lt;span&gt;&quot;: 4&lt;/span&gt;&lt;/div&gt;&lt;div style=&quot;text-align: left&quot;&gt;&lt;span&gt;&amp;nbsp; }&lt;br&gt;&amp;nbsp; // move card id 2 to&amp;nbsp; &amp;nbsp; &amp;nbsp; &amp;nbsp;above index 4&amp;nbsp;&lt;/span&gt;&lt;/div&gt;" style="rounded=1;whiteSpace=wrap;html=1;" parent="1" vertex="1">
                    <mxGeometry x="680" y="40" width="140" height="160" as="geometry"/>
                </mxCell>
                <mxCell id="2" value="ID = 1&lt;br&gt;Idx = 1" style="rounded=1;whiteSpace=wrap;html=1;fillColor=#dae8fc;strokeColor=#6c8ebf;" vertex="1" parent="1">
                    <mxGeometry x="50" y="50" width="220" height="70" as="geometry"/>
                </mxCell>
                <mxCell id="3" value="&lt;span&gt;ID = 2&lt;/span&gt;&lt;br&gt;&lt;span&gt;Idx = 2&lt;/span&gt;" style="rounded=1;whiteSpace=wrap;html=1;fillColor=#d5e8d4;strokeColor=#82b366;" vertex="1" parent="1">
                    <mxGeometry x="50" y="150" width="220" height="70" as="geometry"/>
                </mxCell>
                <mxCell id="14" style="edgeStyle=orthogonalEdgeStyle;rounded=0;orthogonalLoop=1;jettySize=auto;html=1;exitX=1;exitY=0.5;exitDx=0;exitDy=0;entryX=0;entryY=0.5;entryDx=0;entryDy=0;curved=1;" edge="1" parent="1" source="3" target="12">
                    <mxGeometry relative="1" as="geometry"/>
                </mxCell>
                <mxCell id="4" value="&lt;span&gt;ID = 3&lt;/span&gt;&lt;br&gt;&lt;span&gt;Idx = 3&lt;/span&gt;" style="rounded=1;whiteSpace=wrap;html=1;fillColor=#ffe6cc;strokeColor=#d79b00;" vertex="1" parent="1">
                    <mxGeometry x="50" y="250" width="220" height="70" as="geometry"/>
                </mxCell>
                <mxCell id="5" value="&lt;span&gt;ID = 4&lt;/span&gt;&lt;br&gt;&lt;span&gt;Idx = 4&lt;/span&gt;" style="rounded=1;whiteSpace=wrap;html=1;fillColor=#fff2cc;strokeColor=#d6b656;" vertex="1" parent="1">
                    <mxGeometry x="50" y="345" width="220" height="70" as="geometry"/>
                </mxCell>
                <mxCell id="8" value="ID = 1&lt;br&gt;Idx = 1" style="rounded=1;whiteSpace=wrap;html=1;fillColor=#dae8fc;strokeColor=#6c8ebf;" vertex="1" parent="1">
                    <mxGeometry x="410" y="50" width="220" height="70" as="geometry"/>
                </mxCell>
                <mxCell id="10" value="&lt;span&gt;ID = 3&lt;/span&gt;&lt;br&gt;&lt;span&gt;&lt;b&gt;Idx = 2&lt;/b&gt;&lt;/span&gt;" style="rounded=1;whiteSpace=wrap;html=1;fillColor=#ffe6cc;strokeColor=#d79b00;" vertex="1" parent="1">
                    <mxGeometry x="410" y="250" width="220" height="70" as="geometry"/>
                </mxCell>
                <mxCell id="11" value="&lt;span&gt;ID = 4&lt;/span&gt;&lt;br&gt;&lt;span&gt;Idx = 4&lt;/span&gt;" style="rounded=1;whiteSpace=wrap;html=1;fillColor=#fff2cc;strokeColor=#d6b656;" vertex="1" parent="1">
                    <mxGeometry x="410" y="440" width="220" height="70" as="geometry"/>
                </mxCell>
                <mxCell id="12" value="&lt;span&gt;ID = 2&lt;/span&gt;&lt;br&gt;&lt;span&gt;&lt;b&gt;Idx = 3&lt;/b&gt;&lt;/span&gt;" style="rounded=1;whiteSpace=wrap;html=1;fillColor=#d5e8d4;strokeColor=#82b366;" vertex="1" parent="1">
                    <mxGeometry x="410" y="345" width="220" height="70" as="geometry"/>
                </mxCell>
                <mxCell id="13" style="edgeStyle=orthogonalEdgeStyle;rounded=0;orthogonalLoop=1;jettySize=auto;html=1;exitX=0.5;exitY=1;exitDx=0;exitDy=0;" edge="1" parent="1" source="10" target="10">
                    <mxGeometry relative="1" as="geometry"/>
                </mxCell>
            </root>
        </mxGraphModel>
    </diagram>
</mxfile>